<svg xmlns="http://www.w3.org/2000/svg" width="184" height="60" fill="none">
  <g filter="url(#a)">
    <path fill="#5DDAFA"
      d="M28.431 44.18v10.756h-11.14C10.504 54.936 5 49.432 5 42.644V31.888h11.14c6.788 0 12.291 5.504 12.291 12.292Z" />
    <path fill="url(#b)"
      d="M28.431 44.18v10.756h-11.14C10.504 54.936 5 49.432 5 42.644V31.888h11.14c6.788 0 12.291 5.504 12.291 12.292Z" />
    <path fill="#5DDAFA"
      d="M34.577 44.18v10.756h11.14c6.788 0 12.291-5.504 12.291-12.292V31.888H46.87c-6.789 0-12.292 5.504-12.292 12.292Z" />
    <path fill="url(#c)"
      d="M34.577 44.18v10.756h11.14c6.788 0 12.291-5.504 12.291-12.292V31.888H46.87c-6.789 0-12.292 5.504-12.292 12.292Z" />
  </g>
  <g filter="url(#d)">
    <path fill="#1CC464"
      d="M21.66 16.974 31.505 5l9.845 11.974a7.682 7.682 0 0 1-.43 10.238l-9.416 9.67-9.415-9.67a7.682 7.682 0 0 1-.43-10.238Z" />
  </g>
  <path fill="#47B0FC" fill-rule="evenodd"
    d="M87.782 16.428H78.32a1.104 1.104 0 0 1 0-2.209h9.463c2.457 0 4.45 1.978 4.45 4.417v8.835c0 2.44-1.993 4.418-4.45 4.418H78.32a1.104 1.104 0 0 1 0-2.21h9.463a2.217 2.217 0 0 0 2.225-2.208v-3.865h-7.238a1.104 1.104 0 1 1 0-2.209h7.238v-2.76c0-1.22-.996-2.21-2.225-2.21Zm26.696 0a2.217 2.217 0 0 0-2.224 2.208v8.835c0 1.22.996 2.209 2.224 2.209h7.787a2.217 2.217 0 0 0 2.224-2.209v-8.835c0-1.22-.996-2.208-2.224-2.208h-7.787Zm-4.449 2.208c0-2.44 1.992-4.417 4.449-4.417h7.787c2.457 0 4.449 1.978 4.449 4.417v8.835c0 2.44-1.992 4.418-4.449 4.418h-7.787c-2.457 0-4.449-1.978-4.449-4.418v-8.835Z"
    clip-rule="evenodd" />
  <path fill="#47B0FC"
    d="m99.042 22.521 8.326-6.32c.745-.566.345-1.755-.591-1.755h-.388c-.242 0-.477.08-.67.226l-8.858 6.725h-.736v-6.066a1.112 1.112 0 0 0-2.225 0v15.445a1.112 1.112 0 1 0 2.225 0v-7.17h.722l10.219 8.045c.196.154.437.238.685.238h.409c.917 0 1.318-1.158.597-1.725l-9.715-7.643Z" />
  <path fill="#627383"
    d="M80.85 36.523c1.14 0 2.072.376 2.796 1.129.731.745 1.097 1.667 1.097 2.764 0 1.097-.366 2.022-1.097 2.775-.724.745-1.656 1.118-2.796 1.118a3.804 3.804 0 0 1-1.925-.505 3.459 3.459 0 0 1-1.334-1.355l.667-.377c.236.46.588.825 1.054 1.097.466.273.978.409 1.538.409.867 0 1.584-.265 2.15-.796.567-.53.89-1.2.969-2.011h-4.12v-.71h4.12c-.08-.81-.402-1.48-.968-2.011-.567-.53-1.284-.796-2.151-.796-.56 0-1.072.136-1.538.409a2.673 2.673 0 0 0-1.054 1.097l-.667-.388a3.46 3.46 0 0 1 1.344-1.344 3.747 3.747 0 0 1 1.915-.505ZM89.951 44.18h-.946l-2.69-2.592v2.592h-.709v-5.377h.71v2.377l2.56-2.377h.968l-2.775 2.58 2.882 2.797Z" />
  <path fill="#627383"
    d="M94.569 43.503c-.545.537-1.212.806-2 .806-.79 0-1.46-.269-2.012-.806-.545-.545-.817-1.216-.817-2.012 0-.795.272-1.462.817-2a2.757 2.757 0 0 1 2.011-.818c.79 0 1.456.273 2 .818.553.538.829 1.205.829 2 0 .796-.276 1.467-.828 2.012Zm-3.506-.495c.408.409.91.613 1.505.613.596 0 1.097-.204 1.506-.613.409-.416.613-.921.613-1.517 0-.595-.204-1.097-.613-1.505a2.029 2.029 0 0 0-1.506-.624 2.03 2.03 0 0 0-1.505.624c-.41.408-.613.91-.613 1.505 0 .596.204 1.101.613 1.517ZM100.462 38.803v5.377h-.71v-4.69h-2.43v2.4c0 .896-.173 1.512-.517 1.85-.337.336-.803.483-1.398.44v-.667c.409.043.71-.053.903-.29.201-.237.302-.681.302-1.334v-3.086h3.85ZM106.149 43.503c-.545.537-1.211.806-2 .806-.789 0-1.459-.269-2.011-.806-.545-.545-.818-1.216-.818-2.012 0-.795.273-1.462.818-2a2.756 2.756 0 0 1 2.011-.818c.789 0 1.455.273 2 .818.552.538.829 1.205.829 2 0 .796-.277 1.467-.829 2.012Zm-3.506-.495c.409.409.911.613 1.506.613s1.097-.204 1.506-.613c.408-.416.613-.921.613-1.517a2.05 2.05 0 0 0-.613-1.505 2.03 2.03 0 0 0-1.506-.624 2.03 2.03 0 0 0-1.506.624c-.409.408-.613.91-.613 1.505 0 .596.204 1.101.613 1.517ZM111.284 38.803v.688h-2.731v4.69h-.71v-5.378h3.441ZM115.741 38.803h.603v5.377h-.71v-4.14l-3.205 4.14h-.603v-5.377h.71v4.14l3.205-4.14ZM121.007 38.803h.71v5.377h-.71v-2.043c-.416.215-.929.322-1.538.322-.703 0-1.241-.16-1.613-.484-.366-.33-.549-.813-.549-1.452v-1.72h.71v1.72c0 .452.118.778.355.98.236.193.595.29 1.075.29.56 0 1.079-.104 1.56-.312v-2.678ZM125.387 38.673c.796 0 1.438.284 1.925.85.495.56.743 1.223.743 1.99 0 .079-.008.19-.022.333h-4.722c.072.545.302.98.689 1.302.394.315.878.473 1.452.473.408 0 .76-.083 1.054-.247.301-.172.527-.395.677-.667l.624.365c-.236.38-.559.682-.968.904a2.88 2.88 0 0 1-1.398.333c-.846 0-1.534-.265-2.065-.796-.531-.53-.796-1.204-.796-2.022 0-.803.262-1.473.785-2.01.524-.539 1.198-.808 2.022-.808Zm0 .689c-.559 0-1.029.168-1.409.505-.373.33-.595.76-.667 1.291h4.012c-.072-.566-.29-1.007-.656-1.323a1.899 1.899 0 0 0-1.28-.473ZM131.367 44.31c-.81 0-1.484-.27-2.022-.807-.538-.545-.807-1.216-.807-2.012 0-.795.269-1.462.807-2 .538-.545 1.212-.818 2.022-.818.531 0 1.007.13 1.43.388.423.25.732.591.925 1.022l-.58.333a1.641 1.641 0 0 0-.699-.764 2.016 2.016 0 0 0-1.076-.29 2.03 2.03 0 0 0-1.506.624 2.05 2.05 0 0 0-.613 1.505c0 .596.205 1.101.613 1.517.409.409.911.613 1.506.613.402 0 .76-.093 1.076-.28.315-.193.562-.451.742-.774l.591.344a2.48 2.48 0 0 1-.979 1.022c-.43.25-.907.376-1.43.376ZM138.818 44.18h-.947l-2.688-2.592v2.592h-.71v-5.377h.71v2.377l2.559-2.377h.968l-2.775 2.58 2.883 2.797ZM143.38 38.803h.602v5.377h-.71v-4.14l-3.205 4.14h-.602v-5.377h.71v4.14l3.205-4.14ZM147.645 38.673c.796 0 1.437.284 1.925.85.495.56.742 1.223.742 1.99 0 .079-.007.19-.021.333h-4.722c.072.545.301.98.688 1.302.395.315.879.473 1.452.473.409 0 .76-.083 1.054-.247.302-.172.527-.395.678-.667l.624.365c-.237.38-.559.682-.968.904a2.88 2.88 0 0 1-1.398.333c-.846 0-1.535-.265-2.065-.796-.531-.53-.796-1.204-.796-2.022 0-.803.261-1.473.785-2.01.523-.539 1.197-.808 2.022-.808Zm0 .689c-.559 0-1.029.168-1.409.505-.373.33-.595.76-.667 1.291h4.012c-.072-.566-.291-1.007-.656-1.323a1.9 1.9 0 0 0-1.28-.473ZM157.357 38.803h.753l-2.302 5.872c-.208.53-.506.947-.893 1.248-.38.308-.806.444-1.28.408v-.667c.646.072 1.137-.3 1.474-1.118l.14-.334-2.409-5.41h.752l2.022 4.507 1.743-4.506ZM160.941 44.31c-.81 0-1.484-.27-2.022-.807-.538-.545-.807-1.216-.807-2.012 0-.795.269-1.462.807-2 .538-.545 1.212-.818 2.022-.818.53 0 1.007.13 1.43.388.423.25.732.591.925 1.022l-.581.333a1.63 1.63 0 0 0-.699-.764 2.013 2.013 0 0 0-1.075-.29 2.03 2.03 0 0 0-1.506.624c-.409.408-.613.91-.613 1.505 0 .596.204 1.101.613 1.517.409.409.911.613 1.506.613.401 0 .76-.093 1.075-.28.316-.193.563-.451.742-.774l.592.344c-.222.43-.549.77-.979 1.022-.43.25-.907.376-1.43.376ZM168.351 38.803v5.377h-.71v-4.69h-2.43v2.4c0 .896-.173 1.512-.517 1.85-.337.336-.803.483-1.398.44v-.667c.409.043.71-.053.904-.29.2-.237.301-.681.301-1.334v-3.086h3.85ZM173.404 38.803h.753l-2.302 5.872c-.208.53-.505.947-.892 1.248-.38.308-.807.444-1.28.408v-.667c.645.072 1.136-.3 1.473-1.118l.14-.334-2.409-5.41h.753l2.022 4.507 1.742-4.506ZM178.134 38.803v.688h-2.732v4.69h-.71v-5.378h3.442ZM182.591 38.803h.602v5.377h-.71v-4.14l-3.205 4.14h-.602v-5.377h.71v4.14l3.205-4.14ZM140.062 16.427h-9.463a1.105 1.105 0 0 1 0-2.208h9.463c2.458 0 4.45 1.978 4.45 4.417v8.835c0 2.44-1.992 4.417-4.45 4.417h-9.463a1.105 1.105 0 0 1 0-2.209h9.463a2.217 2.217 0 0 0 2.225-2.208v-3.865h-7.238a1.104 1.104 0 0 1 0-2.209h7.238v-2.76c0-1.22-.996-2.21-2.225-2.21Z" />
  <path fill="#1CC464"
    d="M140.062 16.427h-9.463a1.105 1.105 0 0 1 0-2.208h9.463c2.458 0 4.45 1.978 4.45 4.417v8.835c0 2.44-1.992 4.417-4.45 4.417h-9.463a1.105 1.105 0 0 1 0-2.209h9.463a2.217 2.217 0 0 0 2.225-2.208v-3.865h-7.238a1.104 1.104 0 0 1 0-2.209h7.238v-2.76c0-1.22-.996-2.21-2.225-2.21Z" />
  <path fill="#627383" fill-rule="evenodd"
    d="M149.265 14.219a2.52 2.52 0 0 0-2.529 2.51v14.047a1.112 1.112 0 0 0 2.225 0v-4.962h9.733c3.225 0 5.84-2.595 5.84-5.797 0-3.203-2.615-5.798-5.84-5.798h-9.429Zm-.304 9.387h9.733c1.997 0 3.615-1.607 3.615-3.59 0-1.982-1.618-3.589-3.615-3.589h-9.429a.303.303 0 0 0-.304.302v6.877Z"
    clip-rule="evenodd" />
  <path fill="#1CC464" fill-rule="evenodd"
    d="M149.265 14.219a2.52 2.52 0 0 0-2.529 2.51v14.047a1.112 1.112 0 0 0 2.225 0v-4.962h9.733c3.225 0 5.84-2.595 5.84-5.797 0-3.203-2.615-5.798-5.84-5.798h-9.429Zm-.304 9.387h9.733c1.997 0 3.615-1.607 3.615-3.59 0-1.982-1.618-3.589-3.615-3.589h-9.429a.303.303 0 0 0-.304.302v6.877Z"
    clip-rule="evenodd" />
  <path fill="#627383" fill-rule="evenodd"
    d="M170.652 14.219c-2.457 0-4.45 1.978-4.45 4.417v12.14a1.113 1.113 0 0 0 2.225 0v-5.514h13.348v5.514a1.112 1.112 0 0 0 2.225 0v-12.14c0-2.44-1.992-4.417-4.449-4.417h-8.899Zm-2.225 8.835h13.348v-4.418c0-1.22-.996-2.209-2.224-2.209h-8.899a2.217 2.217 0 0 0-2.225 2.21v4.416Z"
    clip-rule="evenodd" />
  <path fill="#1CC464" fill-rule="evenodd"
    d="M170.652 14.219c-2.457 0-4.45 1.978-4.45 4.417v12.14a1.113 1.113 0 0 0 2.225 0v-5.514h13.348v5.514a1.112 1.112 0 0 0 2.225 0v-12.14c0-2.44-1.992-4.417-4.449-4.417h-8.899Zm-2.225 8.835h13.348v-4.418c0-1.22-.996-2.209-2.224-2.209h-8.899a2.217 2.217 0 0 0-2.225 2.21v4.416Z"
    clip-rule="evenodd" />
  <defs>
    <linearGradient id="b" x1="5" x2="59.994" y1="31.888" y2="48.272" gradientUnits="userSpaceOnUse">
      <stop stop-color="#3C9CF4" />
      <stop offset="1" stop-color="#3CE9F4" />
    </linearGradient>
    <linearGradient id="c" x1="5" x2="59.994" y1="31.888" y2="48.272" gradientUnits="userSpaceOnUse">
      <stop stop-color="#3C9CF4" />
      <stop offset="1" stop-color="#3CE9F4" />
    </linearGradient>
    <filter id="a" width="63.009" height="33.047" x="0" y="26.888"
      color-interpolation-filters="sRGB" filterUnits="userSpaceOnUse">
      <feFlood flood-opacity="0" result="BackgroundImageFix" />
      <feColorMatrix in="SourceAlpha" result="hardAlpha"
        values="0 0 0 0 0 0 0 0 0 0 0 0 0 0 0 0 0 0 127 0" />
      <feOffset />
      <feGaussianBlur stdDeviation="2.5" />
      <feColorMatrix values="0 0 0 0 0.364706 0 0 0 0 0.854902 0 0 0 0 0.980392 0 0 0 0.4 0" />
      <feBlend in2="BackgroundImageFix" result="effect1_dropShadow_43_190" />
      <feBlend in="SourceGraphic" in2="effect1_dropShadow_43_190" result="shape" />
    </filter>
    <filter id="d" width="33.187" height="41.882" x="14.911" y="0"
      color-interpolation-filters="sRGB" filterUnits="userSpaceOnUse">
      <feFlood flood-opacity="0" result="BackgroundImageFix" />
      <feColorMatrix in="SourceAlpha" result="hardAlpha"
        values="0 0 0 0 0 0 0 0 0 0 0 0 0 0 0 0 0 0 127 0" />
      <feOffset />
      <feGaussianBlur stdDeviation="2.5" />
      <feColorMatrix values="0 0 0 0 0.109804 0 0 0 0 0.764706 0 0 0 0 0.392157 0 0 0 0.4 0" />
      <feBlend in2="BackgroundImageFix" result="effect1_dropShadow_43_190" />
      <feBlend in="SourceGraphic" in2="effect1_dropShadow_43_190" result="shape" />
    </filter>
  </defs>
</svg>