<svg xmlns="http://www.w3.org/2000/svg" width="1263" height="842" fill="none">
  <g fill="#fff" opacity=".7">
    <path
      d="M210.5 421H105.25v105.25H210.5V421ZM105.25 526.25H0V631.5h105.25V526.25ZM631.5 0H526.25v105.25H631.5V0ZM526.25 105.25H421V210.5h105.25V105.25ZM1052.5 421h105.25V315.75H1052.5V421ZM1157.75 315.75H1263V210.5h-105.25v105.25ZM631.5 842h105.25V736.75H631.5V842ZM736.75 736.75H842V631.5H736.75v105.25Z" />
    <path
      d="M315.75 421H421V315.75h105.25V210.5H631.5V105.25h105.25V0H1263v105.25h-105.25V210.5H1052.5v105.25H947.25V421H842v105.25H736.75V631.5H631.5v105.25H526.25V842H0V736.75h105.25V631.5H210.5V526.25h105.25V421Z" />
  </g>
</svg>