<svg width="82" height="83" viewBox="0 0 82 83" fill="none" xmlns="http://www.w3.org/2000/svg">
<path fill-rule="evenodd" clip-rule="evenodd" d="M10.8516 0H71.1484V12.1081H75.5C79.0899 12.1081 82 15.0183 82 18.6081V64.8243C82 68.4142 79.0899 71.3243 75.5 71.3243H48.5143L50.4495 80H56.1923C57.0207 80 57.6923 80.6716 57.6923 81.5C57.6923 82.3284 57.0207 83 56.1923 83H25.8077C24.9793 83 24.3077 82.3284 24.3077 81.5C24.3077 80.6716 24.9793 80 25.8077 80H31.5505L33.4857 71.3243H6.5C2.91015 71.3243 0 68.4142 0 64.8243V18.6081C0 15.0183 2.91015 12.1081 6.5 12.1081H10.8516V0ZM10.8516 15.1081H6.5C4.567 15.1081 3 16.6751 3 18.6081V64.8243C3 66.7573 4.567 68.3243 6.5 68.3243H75.5C77.433 68.3243 79 66.7573 79 64.8243V18.6081C79 16.6751 77.433 15.1081 75.5 15.1081H71.1484V16.4324H73.7253C75.6583 16.4324 77.2253 17.9994 77.2253 19.9324V60.9054C77.2253 62.8384 75.6583 64.4054 73.7253 64.4054H8.27473C6.34173 64.4054 4.77473 62.8384 4.77473 60.9054V19.9324C4.77473 17.9994 6.34173 16.4324 8.27472 16.4324H10.8516V15.1081ZM10.8516 19.4324H8.27472C7.99858 19.4324 7.77473 19.6563 7.77473 19.9324V60.9054C7.77473 61.1815 7.99858 61.4054 8.27473 61.4054H73.7253C74.0014 61.4054 74.2253 61.1815 74.2253 60.9054V19.9324C74.2253 19.6563 74.0014 19.4324 73.7253 19.4324H71.1484V58.7838H10.8516V19.4324ZM36.5594 71.3243L34.6242 80H47.3758L45.4406 71.3243H36.5594ZM13.8516 3V8.64865H68.1484V3H13.8516ZM68.1484 11.6486H13.8516V55.7838H68.1484V11.6486ZM17.7967 5.82432C17.7967 4.9959 18.4683 4.32432 19.2967 4.32432H49.2473C50.0757 4.32432 50.7473 4.9959 50.7473 5.82432C50.7473 6.65275 50.0757 7.32432 49.2473 7.32432H19.2967C18.4683 7.32432 17.7967 6.65275 17.7967 5.82432ZM35.5934 66.3649C35.5934 65.5364 36.265 64.8649 37.0934 64.8649H44.9066C45.735 64.8649 46.4066 65.5364 46.4066 66.3649C46.4066 67.1933 45.735 67.8649 44.9066 67.8649H37.0934C36.265 67.8649 35.5934 67.1933 35.5934 66.3649Z" fill="#3B4252"/>
<path d="M33.2146 45.5C32.8859 45.5 32.5596 45.4001 32.281 45.204C31.7621 44.8377 31.5197 44.2082 31.6609 43.6007L33.5909 35.3208L27.0457 29.7305C26.5645 29.3214 26.3807 28.6736 26.5783 28.0809C26.7758 27.4892 27.3132 27.0704 27.9495 27.0131L36.6097 26.2474L40.0336 18.4436C40.2861 17.8703 40.8611 17.5 41.4999 17.5C42.1387 17.5 42.7137 17.8703 42.9662 18.4423L46.3901 26.2474L55.0489 27.0131C55.6866 27.069 56.224 27.4892 56.4215 28.0809C56.6191 28.6725 56.4364 29.3214 55.9553 29.7305L49.41 35.3197L51.34 43.5994C51.4815 44.2082 51.2388 44.8377 50.7202 45.2029C50.2027 45.568 49.5126 45.5961 48.9676 45.2771L41.4999 40.9308L34.0322 45.2795C33.7798 45.4255 33.4985 45.5 33.2146 45.5ZM41.4999 39.0585C41.7837 39.0585 42.0648 39.1328 42.3175 39.2788L49.3652 43.3841L47.5437 35.5692C47.4137 35.013 47.6075 34.4323 48.0488 34.056L54.229 28.7773L46.0525 28.0541C45.4638 28.0017 44.9575 27.6413 44.7274 27.1129L41.4999 19.7486L38.2685 27.1141C38.041 27.6388 37.5347 27.9993 36.9473 28.0517L28.7696 28.7748L34.9496 34.0535C35.3923 34.4309 35.5859 35.0105 35.4548 35.5681L33.6346 43.3827L40.6823 39.2788C40.9348 39.1328 41.2161 39.0585 41.4999 39.0585ZM36.5436 26.3983C36.5436 26.3983 36.5436 26.3996 36.5422 26.4007L36.5436 26.3983ZM46.4537 26.3947L46.4551 26.3972C46.4551 26.3958 46.4551 26.3958 46.4537 26.3947Z" fill="#3B4252"/>
</svg>
