<svg xmlns="http://www.w3.org/2000/svg" width="17" height="16" fill="none">
  <g fill="#3B4252" opacity=".5">
    <path fill-rule="evenodd"
      d="M8.35.7C4.054.7.7 3.518.7 6.85.7 10.182 4.054 13 8.35 13c.601 0 1.186-.056 1.746-.161l.175-.033.13.122c.765.719 1.388 1.16 2.058 1.461.434.195.898.334 1.448.447a5.13 5.13 0 0 1-.58-.85c-.294-.553-.447-1.143-.518-1.907l-.02-.218.186-.114C14.833 10.612 16 8.828 16 6.85 16 3.518 12.646.7 8.35.7ZM0 6.85C0 3.002 3.81 0 8.35 0c4.54 0 8.35 3.002 8.35 6.85 0 2.2-1.258 4.134-3.172 5.376.073.591.203 1.029.417 1.43.242.455.602.886 1.155 1.449l.722.735-1.02-.143c-1.049-.148-1.867-.327-2.63-.67-.723-.323-1.376-.784-2.121-1.469a10.18 10.18 0 0 1-1.701.142C3.81 13.7 0 10.698 0 6.85Z"
      clip-rule="evenodd" />
    <path
      d="M5.35 6.85a.5.5 0 1 1-1 0 .5.5 0 0 1 1 0ZM8.85 6.85a.5.5 0 1 1-1 0 .5.5 0 0 1 1 0ZM12.35 6.85a.5.5 0 1 1-1 0 .5.5 0 0 1 1 0Z" />
  </g>
</svg>