<svg xmlns="http://www.w3.org/2000/svg" width="11" height="18" fill="none">
  <g fill="#3B4252" opacity=".5">
    <path fill-rule="evenodd"
      d="M0 1.765C0 .79.735 0 1.642 0h7.716C10.265 0 11 .79 11 1.765v14.47C11 17.21 10.265 18 9.358 18H1.642C.735 18 0 17.21 0 16.235V1.765ZM1.642.882c-.454 0-.821.395-.821.883v14.47c0 .488.367.883.82.883h7.717c.454 0 .821-.395.821-.883V1.765c0-.488-.367-.883-.82-.883H9.07c-.281.25-.42.765-.498 1.345-.061.458-.41.817-.84.817H3.267c-.43 0-.78-.359-.841-.817-.078-.58-.217-1.095-.498-1.345h-.287Zm1.383.244c.107.314.171.655.214.975a.1.1 0 0 0 .026.057l.004.004h4.462l.004-.004a.1.1 0 0 0 .026-.057c.043-.32.107-.661.214-.975.027-.079.059-.16.095-.244H2.93c.036.083.068.165.095.244Z"
      clip-rule="evenodd" />
    <path
      d="M4.022 1.544c0-.17.129-.309.288-.309h1.313c.159 0 .287.139.287.31 0 .17-.128.308-.287.308H4.31c-.159 0-.288-.138-.288-.309ZM6.239 1.544c0-.17.128-.309.287-.309.159 0 .287.139.287.31 0 .17-.128.308-.287.308-.159 0-.287-.138-.287-.309Z" />
  </g>
</svg>