<svg xmlns="http://www.w3.org/2000/svg" width="16" height="14" fill="none">
  <path fill="#3B4252" fill-rule="evenodd"
    d="M8 .832c-1.805 0-3.25 1.367-3.25 3.03 0 1.665 1.445 3.032 3.25 3.032s3.25-1.367 3.25-3.031C11.25 2.199 9.804.832 8 .832Zm-4.114 3.03C3.886 1.72 5.739 0 8 0s4.114 1.72 4.114 3.863c0 2.144-1.853 3.863-4.114 3.863s-4.114-1.72-4.114-3.863ZM8 10.17c-3.134 0-5.833 1.484-7.199 3.631a.442.442 0 0 1-.594.138.407.407 0 0 1-.143-.572C1.599 10.954 4.589 9.338 8 9.338c3.41 0 6.401 1.616 7.936 4.03a.407.407 0 0 1-.143.57.442.442 0 0 1-.594-.137C13.833 11.654 11.134 10.17 8 10.17Z"
    clip-rule="evenodd" opacity=".5" />
</svg>